<svg width="75" height="77" viewBox="0 0 75 77" fill="none" xmlns="http://www.w3.org/2000/svg">
<path d="M23.8269 7L6 24.5854V52.4146L23.8269 70H51.1731L69 52.4146V24.5854L51.1731 7H23.8269Z" stroke="url(#paint0_linear_498_2465)"/>
<path d="M21.6566 1L1 21.935V55.065L21.6566 76H53.3434L74 55.065V21.935L53.3434 1H21.6566Z" stroke="url(#paint1_linear_498_2465)"/>
<path d="M51.4162 54.0279L54 51.4401V49.5769L49.5585 54.0279H51.4162ZM51.4162 27.2005H49.6464L54 31.5609V29.7882L51.4162 27.2005ZM21 51.4401L23.5838 54.0279H25.3743L21 49.6468V51.4401V51.4401ZM23.5838 27.1979L21 29.7857V31.491L25.2891 27.1979H23.5838V27.1979Z" fill="#61BAA8"/>
<path d="M49.6464 27.2007L33.1541 27.1981C33.1567 26.0853 33.1618 25.0476 33.167 24.1755H42.528V19H30.5987L28.0149 21.5645C28.0149 21.5955 27.9943 24.116 27.9865 27.1981H25.2891L21 31.4912V49.647L25.3743 54.0281H49.5585L54 49.5771V31.561L49.6464 27.2006V27.2007ZM48.8325 48.8525H26.1675V32.3736L48.8325 32.3762V48.8525Z" fill="#61BAA8"/>
<path d="M37.6241 35.2874C35.3995 35.2874 33.5908 37.0988 33.5908 39.3269C33.5908 40.5198 34.1102 41.5937 34.9344 42.3338V45.2529H40.1019V42.5098C41.0476 41.7723 41.6574 40.6207 41.6574 39.3269C41.6574 37.0988 39.8487 35.2874 37.6241 35.2874V35.2874ZM37.6241 39.1069C37.7456 39.1069 37.8437 39.2052 37.8437 39.3269C37.8437 39.4485 37.7456 39.5468 37.6241 39.5468C37.5027 39.5468 37.4045 39.4485 37.4045 39.3269C37.4045 39.2052 37.5027 39.1069 37.6241 39.1069Z" fill="#61BAA8"/>
<defs>
<linearGradient id="paint0_linear_498_2465" x1="64.6393" y1="7.00007" x2="8.39421" y2="10.1452" gradientUnits="userSpaceOnUse">
<stop offset="0.0130177" stop-color="#240C3A"/>
<stop offset="0.533855" stop-color="#57BFDE"/>
<stop offset="1" stop-color="#240D3A"/>
</linearGradient>
<linearGradient id="paint1_linear_498_2465" x1="68.9471" y1="1.00009" x2="3.76356" y2="4.54787" gradientUnits="userSpaceOnUse">
<stop offset="0.0130177" stop-color="#240C3A"/>
<stop offset="0.533855" stop-color="#57BFDE"/>
<stop offset="1" stop-color="#240D3A"/>
</linearGradient>
</defs>
</svg>
