<svg width="24" height="26" viewBox="0 0 24 26" fill="none" xmlns="http://www.w3.org/2000/svg">
<path d="M12.3909 12.8548L0.64959 24.5961C0.560544 24.4033 0.5 24.1526 0.5 23.8528V1.75278C0.5 1.52977 0.515473 1.34563 0.542954 1.19499L12.3909 12.8548Z" fill="white" stroke="#8F8F8F"/>
<path d="M13.457 12.9028L17.0561 9.3037L21.7518 11.987C22.3615 12.3353 22.5499 12.7217 22.5499 13.0028C22.5499 13.2832 22.3625 13.6682 21.7568 14.0158L17.0901 16.5359L13.457 12.9028Z" fill="white" stroke="#8F8F8F"/>
<mask id="path-3-inside-1_660_1424" fill="white">
<path d="M17.0999 17.0528L12.8999 12.8528L0.399902 25.3528C0.899902 25.8528 1.5999 25.8528 2.4999 25.4528L17.0999 17.0528Z"/>
</mask>
<path d="M17.0999 17.0528L12.8999 12.8528L0.399902 25.3528C0.899902 25.8528 1.5999 25.8528 2.4999 25.4528L17.0999 17.0528Z" fill="white"/>
<path d="M12.8999 12.8528L13.607 12.1457L12.8999 11.4386L12.1928 12.1457L12.8999 12.8528ZM0.399902 25.3528L-0.307204 24.6457L-1.01431 25.3528L-0.307204 26.0599L0.399902 25.3528ZM2.4999 25.4528L2.90604 26.3666L2.95354 26.3455L2.9986 26.3196L2.4999 25.4528ZM17.807 16.3457L13.607 12.1457L12.1928 13.5599L16.3928 17.7599L17.807 16.3457ZM12.1928 12.1457L-0.307204 24.6457L1.10701 26.0599L13.607 13.5599L12.1928 12.1457ZM-0.307204 26.0599C0.128545 26.4956 0.671494 26.7185 1.26421 26.7396C1.82308 26.7596 2.38093 26.6 2.90604 26.3666L2.09376 24.539C1.71887 24.7056 1.47673 24.746 1.33559 24.7409C1.22831 24.7371 1.17126 24.7099 1.10701 24.6457L-0.307204 26.0599ZM2.9986 26.3196L17.5986 17.9196L16.6012 16.186L2.00121 24.586L2.9986 26.3196Z" fill="#8F8F8F" mask="url(#path-3-inside-1_660_1424)"/>
<path d="M2.25501 0.788701C2.2557 0.789084 2.25639 0.789468 2.25708 0.789852L16.2824 8.76318L12.8985 12.1471L1.20369 0.54585C1.24655 0.53614 1.29046 0.529722 1.33553 0.526503C1.56138 0.51037 1.86373 0.571699 2.25501 0.788701Z" fill="white" stroke="#8F8F8F"/>
<g opacity="0.2">
<mask id="path-6-inside-2_660_1424" fill="white">
<path d="M16.9999 16.9528L2.4999 25.1528C1.6999 25.6528 0.999903 25.5528 0.499903 25.1528L0.399902 25.2528L0.499903 25.3528C0.999903 25.7528 1.6999 25.8528 2.4999 25.3528L16.9999 16.9528Z"/>
</mask>
<path d="M16.9999 16.9528L2.4999 25.1528C1.6999 25.6528 0.999903 25.5528 0.499903 25.1528L0.399902 25.2528L0.499903 25.3528C0.999903 25.7528 1.6999 25.8528 2.4999 25.3528L16.9999 16.9528Z" fill="white"/>
<path d="M16.9999 16.9528L17.5012 17.818L16.5076 16.0823L16.9999 16.9528ZM2.4999 25.1528L2.00765 24.2823L1.98853 24.2931L1.9699 24.3048L2.4999 25.1528ZM0.499903 25.1528L1.1246 24.3719L0.42568 23.8128L-0.207211 24.4457L0.499903 25.1528ZM0.399902 25.2528L-0.307211 24.5457L-1.01431 25.2528L-0.307198 25.9599L0.399902 25.2528ZM0.499903 25.3528L-0.207197 26.0599L-0.168037 26.099L-0.124792 26.1336L0.499903 25.3528ZM2.4999 25.3528L1.99863 24.4875L1.98412 24.4959L1.9699 24.5048L2.4999 25.3528ZM16.5076 16.0823L2.00765 24.2823L2.99216 26.0232L17.4922 17.8232L16.5076 16.0823ZM1.9699 24.3048C1.70842 24.4682 1.52827 24.4948 1.42441 24.4909C1.32242 24.4872 1.2246 24.4519 1.1246 24.3719L-0.124792 25.9336C0.275206 26.2536 0.777383 26.4684 1.35039 26.4896C1.92153 26.5107 2.49139 26.3373 3.0299 26.0008L1.9699 24.3048ZM-0.207211 24.4457L-0.307211 24.5457L1.10702 25.9599L1.20702 25.8599L-0.207211 24.4457ZM-0.307198 25.9599L-0.207197 26.0599L1.207 24.6456L1.107 24.5456L-0.307198 25.9599ZM-0.124792 26.1336C0.275206 26.4536 0.777383 26.6684 1.35039 26.6896C1.92153 26.7107 2.49139 26.5373 3.0299 26.2008L1.9699 24.5048C1.70842 24.6682 1.52827 24.6948 1.42441 24.6909C1.32242 24.6872 1.2246 24.6519 1.1246 24.5719L-0.124792 26.1336ZM3.00117 26.218L17.5012 17.818L16.4986 16.0875L1.99863 24.4875L3.00117 26.218Z" fill="#8F8F8F" mask="url(#path-6-inside-2_660_1424)"/>
</g>
<g opacity="0.12">
<mask id="path-8-inside-3_660_1424" fill="white">
<path d="M0.4 25.1528C0.0999996 24.8528 0 24.3528 0 23.7528V23.8528C0 24.4528 0.2 24.9528 0.5 25.2528V25.1528H0.4ZM22 14.1528L17 16.9528L17.1 17.0528L22 14.2528C22.7 13.8528 23 13.3528 23 12.8528C23 13.3528 22.6 13.7528 22 14.1528Z"/>
</mask>
<path d="M0.4 25.1528C0.0999996 24.8528 0 24.3528 0 23.7528V23.8528C0 24.4528 0.2 24.9528 0.5 25.2528V25.1528H0.4ZM22 14.1528L17 16.9528L17.1 17.0528L22 14.2528C22.7 13.8528 23 13.3528 23 12.8528C23 13.3528 22.6 13.7528 22 14.1528Z" fill="white"/>
<path d="M0.4 25.1528L-0.307107 25.8599L-0.0142139 26.1528H0.4V25.1528ZM0.5 25.2528L-0.207107 25.9599L1.5 27.667V25.2528H0.5ZM0.5 25.1528H1.5V24.1528H0.5V25.1528ZM17 16.9528L16.5114 16.0803L15.3588 16.7258L16.2929 17.6599L17 16.9528ZM17.1 17.0528L16.3929 17.7599L16.933 18.3L17.5961 17.921L17.1 17.0528ZM22 14.2528L21.5039 13.3845V13.3845L22 14.2528ZM1.10711 24.4457C1.11751 24.4561 1.08665 24.4327 1.05457 24.3108C1.02182 24.1863 1 24.0047 1 23.7528H-1C-1 24.3913 -0.90983 25.2572 -0.307107 25.8599L1.10711 24.4457ZM-1 23.7528V23.8528H1V23.7528H-1ZM-1 23.8528C-1 24.658 -0.733213 25.4338 -0.207107 25.9599L1.20711 24.5457C1.13321 24.4718 1 24.2476 1 23.8528H-1ZM1.5 25.2528V25.1528H-0.5V25.2528H1.5ZM0.5 24.1528H0.4V26.1528H0.5V24.1528ZM21.5114 13.2803L16.5114 16.0803L17.4886 17.8253L22.4886 15.0253L21.5114 13.2803ZM16.2929 17.6599L16.3929 17.7599L17.8071 16.3457L17.7071 16.2457L16.2929 17.6599ZM17.5961 17.921L22.4961 15.121L21.5039 13.3845L16.6039 16.1845L17.5961 17.921ZM22.4961 15.121C23.4021 14.6033 24 13.8186 24 12.8528H22C22 12.8923 21.991 12.9469 21.9372 13.0256C21.8785 13.1114 21.7542 13.2415 21.5039 13.3845L22.4961 15.121ZM22 12.8528C22 12.8106 22.0241 12.8183 21.9531 12.9046C21.8702 13.0052 21.7148 13.141 21.4453 13.3207L22.5547 14.9848C23.1402 14.5945 24 13.929 24 12.8528H22Z" fill="#8F8F8F" mask="url(#path-8-inside-3_660_1424)"/>
</g>
<g opacity="0.25">
<mask id="path-10-inside-4_660_1424" fill="white">
<path d="M2.5 0.452809L22 11.5528C22.6 11.9528 23 12.3528 23 12.8528C23 12.3528 22.7 11.8528 22 11.4528L2.5 0.352809C1.1 -0.447191 0 0.152809 0 1.75281V1.85281C0 0.352809 1.1 -0.347191 2.5 0.452809Z"/>
</mask>
<path d="M2.5 0.452809L22 11.5528C22.6 11.9528 23 12.3528 23 12.8528C23 12.3528 22.7 11.8528 22 11.4528L2.5 0.352809C1.1 -0.447191 0 0.152809 0 1.75281V1.85281C0 0.352809 1.1 -0.347191 2.5 0.452809Z" fill="white"/>
<path d="M2.5 0.452809L2.00386 1.32105L2.0053 1.32187L2.5 0.452809ZM22 11.5528L22.5547 10.7208L22.5254 10.7012L22.4947 10.6837L22 11.5528ZM22 11.4528L22.4961 10.5846L22.4947 10.5837L22 11.4528ZM2.5 0.352809L2.00386 1.22105L2.0053 1.22187L2.5 0.352809ZM2.0053 1.32187L21.5053 12.4219L22.4947 10.6837L2.9947 -0.416255L2.0053 1.32187ZM21.4453 12.3849C21.7148 12.5646 21.8702 12.7004 21.9531 12.801C22.0241 12.8873 22 12.895 22 12.8528H24C24 11.7766 23.1402 11.1111 22.5547 10.7208L21.4453 12.3849ZM24 12.8528C24 11.8869 23.4021 11.1023 22.4961 10.5846L21.5039 12.3211C21.7542 12.4641 21.8785 12.5942 21.9372 12.68C21.991 12.7587 22 12.8133 22 12.8528H24ZM22.4947 10.5837L2.9947 -0.516255L2.0053 1.22187L21.5053 12.3219L22.4947 10.5837ZM2.99614 -0.515434C2.1334 -1.00842 1.11438 -1.20747 0.239357 -0.721348C-0.647709 -0.228534 -1 0.750922 -1 1.75281H1C1 1.1547 1.19771 1.03415 1.21064 1.02697C1.23562 1.01309 1.4666 0.914044 2.00386 1.22105L2.99614 -0.515434ZM-1 1.75281V1.85281H1V1.75281H-1ZM1 1.85281C1 1.32836 1.18397 1.18028 1.22887 1.15409C1.26859 1.13092 1.49613 1.03092 2.00386 1.32105L2.99614 -0.415434C2.10387 -0.925305 1.08141 -1.0753 0.221129 -0.57347C-0.633968 -0.0746632 -1 0.877258 -1 1.85281H1Z" fill="#8F8F8F" mask="url(#path-10-inside-4_660_1424)"/>
</g>
</svg>
