<svg width="33" height="18" viewBox="0 0 33 18" fill="none" xmlns="http://www.w3.org/2000/svg">
<path d="M9.31034 18C14.4621 18 18.6207 13.9669 18.6207 9C18.6207 4.03311 14.4621 0 9.31034 0C4.15862 0 0 4.03311 0 9C0 13.9669 4.15862 18 9.31034 18Z" fill="#61BAA8"/>
<path d="M24.1655 17.4636C26.731 17.4636 28.8207 13.6689 28.8207 9C28.8207 4.31126 26.731 0.53642 24.1655 0.53642C21.6 0.53642 19.5103 4.33112 19.5103 9C19.5103 13.6689 21.6 17.4636 24.1655 17.4636Z" fill="#61BAA8"/>
<path d="M31.3655 16.5894C32.2759 16.5894 33 13.1921 33 9C33 4.80795 32.2759 1.41059 31.3655 1.41059C30.4552 1.41059 29.731 4.80795 29.731 9C29.731 13.1921 30.4552 16.5894 31.3655 16.5894Z" fill="#61BAA8"/>
</svg>
