<svg width="23" height="20" viewBox="0 0 23 20" fill="none" xmlns="http://www.w3.org/2000/svg">
<path d="M22.5657 0.274942C22.1733 -0.0430594 21.5571 -0.0885595 20.92 0.155941H20.9189C20.2488 0.412942 1.95056 7.91496 1.20566 8.22146C1.07018 8.26646 -0.113091 8.68847 0.00879283 9.62847C0.117599 10.476 1.06861 10.827 1.18474 10.8675L5.83672 12.39C6.14536 13.372 7.28311 16.995 7.53473 17.769C7.69166 18.2515 7.94746 18.8855 8.39576 19.016C8.78914 19.161 9.18042 19.0285 9.43361 18.8385L12.2777 16.317L16.869 19.7395L16.9784 19.802C17.2901 19.934 17.5888 20 17.8739 20C18.0942 20 18.3055 19.9605 18.5074 19.8815C19.1953 19.6115 19.4705 18.985 19.4992 18.914L22.9287 1.87545C23.138 0.965444 22.8471 0.502442 22.5657 0.274942ZM9.93945 12.999L8.37013 16.999L6.80081 11.999L18.8323 3.49895L9.93945 12.999Z" fill="#61BAA8"/>
</svg>
