<svg width="23" height="19" viewBox="0 0 23 19" fill="none" xmlns="http://www.w3.org/2000/svg">
<path d="M23 0.0106477C21.9989 0.725889 20.8904 1.27293 19.7173 1.63072C19.0876 0.897461 18.2508 0.377749 17.3201 0.141869C16.3893 -0.0940105 15.4095 -0.0346765 14.5131 0.311846C13.6167 0.658369 12.847 1.27536 12.3081 2.07938C11.7692 2.88339 11.4871 3.83564 11.5 4.80732V5.86619C9.66275 5.91444 7.84224 5.50174 6.2006 4.66485C4.55896 3.82795 3.14715 2.59284 2.09091 1.06952C2.09091 1.06952 -2.09091 10.5993 7.31818 14.8348C5.1651 16.3151 2.60021 17.0573 0 16.9525C9.40909 22.2469 20.9091 16.9525 20.9091 4.77556C20.9081 4.48061 20.8801 4.1864 20.8255 3.8967C21.8924 2.83094 22.6454 1.48535 23 0.0106477Z" fill="#61BAA8"/>
</svg>
